<?xml version="1.0" encoding="UTF-8"?>
<svg viewBox="0 0 620 580" xmlns="http://www.w3.org/2000/svg">
 <g fill-rule="evenodd">
  <g stroke-linecap="round" stroke-linejoin="round" stroke-width="5.798">
   <rect y="-3e-6" width="620" height="580" fill="#bf0000"/>
   <g fill="#fff">
    <path d="m216.44 213.75c0 21.697-19.188 39.286-42.857 39.286s-42.857-17.589-42.857-39.286 19.188-39.286 42.857-39.286 42.857 17.589 42.857 39.286z"/>
    <path d="m267.87 214.46c0 21.697-19.188 39.286-42.857 39.286s-42.857-17.589-42.857-39.286 19.188-39.286 42.857-39.286 42.857 17.589 42.857 39.286z"/>
    <path d="m319.58 215.53c0 21.697-19.188 39.286-42.857 39.286s-42.857-17.589-42.857-39.286 19.188-39.286 42.857-39.286 42.857 17.589 42.857 39.286z"/>
    <path d="m371.01 216.25c0 21.697-19.188 39.286-42.857 39.286s-42.857-17.589-42.857-39.286 19.188-39.286 42.857-39.286 42.857 17.589 42.857 39.286z"/>
    <path d="m419.3 216.39c0 21.697-19.188 39.286-42.857 39.286s-42.857-17.589-42.857-39.286 19.188-39.286 42.857-39.286 42.857 17.589 42.857 39.286z"/>
    <path d="m470.73 217.1c0 21.697-19.188 39.286-42.857 39.286s-42.857-17.589-42.857-39.286 19.188-39.286 42.857-39.286 42.857 17.589 42.857 39.286z"/>
   </g>
  </g>
  <g fill="#fff">
   <path d="m177.09 267.4l112.4 273.49 12.24 5.6273 118.06-277.2-242.7-1.9133z" stroke="#fff" stroke-width="1.157"/>
   <path d="m299.81 34.383c-81.726 0-148.04 68.234-148.04 152.31 0 4.6674 0.22044 9.283 0.62053 13.844h294.87c0.40008-4.5608 0.62054-9.1764 0.62054-13.844 0-84.078-66.345-152.31-148.07-152.31z" stroke-linecap="round" stroke-linejoin="round" stroke-width=".7"/>
  </g>
 </g>
</svg>
